:SAMPLES-PER-SECOND 30
:FULLY-SPECIFIED
:DEGREES
191
root  35.06507573 36.46042591 -14.8828131 11.95784378 12.12072468 5.442331791
lowerback  -8.813771248 3.213749886 3.326200485
upperback  -4.534739971 3.646080017 -4.894090176
thorax  0.7529489994 1.548429966 -6.636760235
lowerneck  -14.79800034 -5.940979958 -1.910949945
upperneck  12.99849987 -9.04197979 7.095330238
head  6.824429989 -3.961189747 1.641090035
lclavicle  0 -4.497500157e-015 -2.743230041e-014
lhumerus  -43.97650146 28.94280052 65.68109894
lradius  -0.1156742349 -6.507048965e-006 25.26370049
lwrist  4.824992743e-007 -3.790274832e-007 -36.57640076
lhand  -4.446661019e-031 -37.42900085 -10.61639977
lfingers  90 7.125020027 -90
lthumb  95.05099193 -25.43419218 101.6290747
rclavicle  0 -4.497500157e-015 -2.743230041e-014
rhumerus  60.91220093 -10.81299973 -52.99409866
rradius  -5.16745672e-007 2.214343908e-008 44.49359894
rwrist  1.380293725e-006 2.528095422e-007 -162.1069946
rhand  -1.771050294e-031 4.511620045 -7.699289799
rfingers  -90 -7.125020027 -90
rthumb  -85.1311005 -8.395124379 -59.73844529
rfemur  -14.96643639 10.20140648 13.77641964
rtibia  -3.628146648 1.261428237 25.14272308
rfoot  -3.312323093 -15.25084209 -44.68616486
rtoes  3.84916503 19.64100437 -101.3192284
lfemur  -13.0252924 -23.78305435 -19.41784859
ltibia  3.321098328 2.031533718 15.39756012
lfoot  1.216412783 -29.39360619 30.26915932
ltoes  -8.691414072 -18.08281019 -116.2203142
192
root  35.06306926 36.46112878 -14.8845958 11.93605328 12.02230358 5.42171669
lowerback  -8.800028801 3.183890104 3.304309845
upperback  -4.548210144 3.604629993 -4.909090042
thorax  0.7252190113 1.525300026 -6.645699978
lowerneck  -14.87839985 -5.850029945 -1.729369998
upperneck  13.09220028 -8.946080208 6.981500149
head  6.850249767 -3.911390305 1.58367002
lclavicle  0 -4.497500157e-015 -2.743230041e-014
lhumerus  -44.02320099 28.88489914 65.646698
lradius  -0.1157257259 -6.507048965e-006 25.32209969
lwrist  4.824992743e-007 -3.790274832e-007 -36.5965004
lhand  -4.446417461e-031 -37.42490005 -10.58600044
lfingers  90 7.125020027 -90
lthumb  95.04224877 -25.40447313 101.6217233
rclavicle  0 -4.497500157e-015 -2.743230041e-014
rhumerus  60.07899475 -10.6908989 -52.40990067
rradius  -5.16745672e-007 2.214343908e-008 45.4917984
rwrist  1.380293725e-006 2.528095422e-007 -163.2539978
rhand  -1.771052586e-031 4.512559891 -7.809189796
rfingers  -90 -7.125020027 -90
rthumb  -85.18683755 -8.300293962 -59.74564965
rfemur  -14.97334862 10.20551395 13.77293491
rtibia  -3.606205463 1.23130393 25.14584923
rfoot  -3.326282978 -15.37820435 -44.64796448
rtoes  3.85329536 19.64022527 -101.3315167
lfemur  -12.96174526 -23.7329483 -19.42323303
ltibia  3.34479022 2.048650742 15.32588387
lfoot  1.236535072 -29.39293861 30.38166046
ltoes  -8.69457704 -18.08132903 -116.2305049
193
root  35.06076843 36.46089148 -14.88657523 11.89411831 11.91094589 5.393204689
lowerback  -8.813830376 3.167279959 3.286410332
upperback  -4.566420078 3.578860044 -4.931389809
thorax  0.7105749846 1.509570003 -6.661970139
lowerneck  -14.85179996 -5.780119896 -1.609840035
upperneck  13.06659985 -8.871310234 6.952129841
head  6.827459812 -3.874200106 1.564650059
lclavicle  0 -4.497500157e-015 -2.743230041e-014
lhumerus  -44.07360077 28.88439941 65.56089783
lradius  -0.1157747284 -6.507048965e-006 25.33550262
lwrist  4.824992743e-007 -3.790274832e-007 -36.71480179
lhand  -4.446601654e-031 -37.4280014 -10.61180019
lfingers  90 7.125020027 -90
lthumb  95.04951702 -25.4296681 101.6276323
rclavicle  0 -4.497500157e-015 -2.743230041e-014
rhumerus  59.28510284 -10.58840084 -51.87639999
rradius  -5.16745672e-007 2.214343908e-008 46.40019989
rwrist  1.380293725e-006 2.528095422e-007 -164.4559937
rhand  -3.541917169e-031 4.473859787 -7.98153019
rfingers  -90 -7.125020027 -90
rthumb  -85.28320901 -8.14869919 -59.79582969
rfemur  -14.96002197 10.28023243 13.77862453
rtibia  -3.584727764 1.25443244 25.14024544
rfoot  -3.304730177 -15.38663483 -44.59564209
rtoes  3.817360704 19.64697437 -101.2246219
lfemur  -12.92131329 -23.71768379 -19.41752625
ltibia  3.338993311 2.019732952 15.32793617
lfoot  1.237871528 -29.33779716 30.46959114
ltoes  -8.698869154 -18.07931802 -116.2443348
194
root  35.05879199 36.4613901 -14.88812664 11.87180996 11.81789017 5.359720707
lowerback  -8.785759926 3.150779963 3.266470432
upperback  -4.589829922 3.55479002 -4.941880226
thorax  0.6668869853 1.494459987 -6.666079998
lowerneck  -14.69900036 -5.736979961 -1.683050036
upperneck  12.95180035 -8.835109711 7.179069996
head  6.77767992 -3.851910114 1.657240033
lclavicle  0 -4.497500157e-015 -2.743230041e-014
lhumerus  -44.13130188 28.77440071 65.57089996
lradius  -0.1158212721 -6.507048965e-006 25.35079956
lwrist  4.824992743e-007 -3.790274832e-007 -36.71770096
lhand  -0 -37.4673996 -10.46850014
lfingers  90 7.125020027 -90
lthumb  95.03588168 -25.28783741 101.6559982
rclavicle  0 -4.497500157e-015 -2.743230041e-014
rhumerus  58.40919876 -10.4659996 -51.39400101
rradius  -5.16745672e-007 2.214343908e-008 47.41910172
rwrist  1.380293725e-006 2.528095422e-007 -165.5059967
rhand  -1.770891108e-031 4.445869923 -7.740680218
rfingers  -90 -7.125020027 -90
rthumb  -85.1671157 -8.354892144 -59.8055004
rfemur  -14.93932724 10.31352901 13.78473282
rtibia  -3.554438114 1.26664865 25.09590149
rfoot  -3.270674229 -15.40785885 -44.54051208
rtoes  3.821813222 19.64614169 -101.2378649
lfemur  -12.93716335 -23.71585846 -19.38369942
ltibia  3.312609911 1.9824332 15.38095284
lfoot  1.234444141 -29.27967644 30.53111267
ltoes  -8.673915613 -18.0909922 -116.1639511
195
root  35.05778275 36.46135405 -14.8898748 11.84238148 11.71198845 5.338144302
lowerback  -8.780579567 3.107850075 3.202399969
upperback  -4.61262989 3.498769999 -4.90790987
thorax  0.6268529892 1.464779973 -6.599840164
lowerneck  -14.6281004 -5.697130203 -1.729750037
upperneck  12.92520046 -8.771080017 7.194890022
head  6.756720066 -3.824409962 1.678900003
lclavicle  0 -4.497500157e-015 -2.743230041e-014
lhumerus  -44.25159836 28.71570015 65.61009979
lradius  -0.1158653572 -6.507048965e-006 25.43640137
lwrist  4.824992743e-007 -3.790274832e-007 -36.49950027
lhand  -4.448087333e-031 -37.45299911 -10.51399994
lfingers  90 7.125020027 -90
lthumb  95.03934072 -25.33293486 101.6449592
rclavicle  0 -4.497500157e-015 -2.743230041e-014
rhumerus  57.37249756 -10.19469929 -50.63439941
rradius  -5.16745672e-007 2.214343908e-008 48.7798996
rwrist  1.380293725e-006 2.528095422e-007 -166.6900024
rhand  -1.770973566e-031 4.480050087 -7.913489819
rfingers  -90 -7.125020027 -90
rthumb  -85.24723647 -8.207930575 -59.78489293
rfemur  -14.9182663 10.3756237 13.78291988
rtibia  -3.534106731 1.281556726 25.06549263
rfoot  -3.236724138 -15.40218067 -44.48825455
rtoes  3.801329487 19.64996402 -101.1769452
lfemur  -12.90362167 -23.68320465 -19.38516045
ltibia  3.307982922 1.970598936 15.38402081
lfoot  1.247274637 -29.26690292 30.61388588
ltoes  -8.667585409 -18.09394701 -116.1435673
196
root  35.05738326 36.46091852 -14.89224922 11.80661774 11.56880283 5.330952644
lowerback  -8.768420219 3.072190046 3.142620087
upperback  -4.64098978 3.451400042 -4.880740166
thorax  0.5791980028 1.438719988 -6.542789936
lowerneck  -14.59659958 -5.63421011 -1.689820051
upperneck  12.93290043 -8.692239761 7.175829887
head  6.74751997 -3.787000179 1.675889969
lclavicle  0 -4.497500157e-015 -2.743230041e-014
lhumerus  -44.31280136 28.5788002 65.68270111
lradius  -0.1159069985 -6.507048965e-006 25.52269745
lwrist  4.824992743e-007 -3.790274832e-007 -36.23350143
lhand  -4.444749912e-031 -37.39680099 -10.59200001
lfingers  90 7.125020027 -90
lthumb  95.03052065 -25.41144884 101.5923974
rclavicle  0 -4.497500157e-015 -2.743230041e-014
rhumerus  56.43729782 -10.01019859 -50.21789932
rradius  -5.16745672e-007 2.214343908e-008 50.04679871
rwrist  1.380293725e-006 2.528095422e-007 -167.947998
rhand  -1.771011023e-031 4.495490074 -8.010800362
rfingers  -90 -7.125020027 -90
rthumb  -85.2932856 -8.124887646 -59.77693282
rfemur  -14.89639473 10.42607975 13.76477623
rtibia  -3.522051334 1.225493789 25.0358696
rfoot  -3.223663092 -15.51802158 -44.44521332
rtoes  3.822133895 19.64608168 -101.2388187
lfemur  -12.87557697 -23.65849876 -19.40768433
ltibia  3.297732592 1.923502207 15.40425777
lfoot  1.247776151 -29.19201851 30.68944931
ltoes  -8.67904985 -18.08859366 -116.1804861
197
root  35.05667138 36.46122189 -14.89396884 11.7899313 11.46001244 5.31613636
lowerback  -8.754320145 3.002079964 3.054449797
upperback  -4.648670197 3.361939907 -4.85367012
thorax  0.5449039936 1.393350005 -6.473549843
lowerneck  -14.57330036 -5.535620213 -1.57201004
upperneck  12.90009975 -8.575269699 7.140270233
head  6.720970154 -3.729870081 1.659559965
lclavicle  0 -4.497500157e-015 -2.743230041e-014
lhumerus  -44.3667984 28.41209793 65.78600311
lradius  -0.1159462035 -6.507048965e-006 25.63719749
lwrist  4.824992743e-007 -3.790274832e-007 -35.86299896
lhand  -4.442818134e-031 -37.36420059 -10.59729958
lfingers  90 7.125020027 -90
lthumb  95.01643218 -25.41783031 101.5580081
rclavicle  0 -4.497500157e-015 -2.743230041e-014
rhumerus  55.60499573 -9.813178062 -49.99430084
rradius  -5.16745672e-007 2.214343908e-008 51.29669952
rwrist  1.380293725e-006 2.528095422e-007 -168.8690033
rhand  -1.771169402e-031 4.560190201 -7.976029873
rfingers  -90 -7.125020027 -90
rthumb  -85.2611118 -8.159445688 -59.71140672
rfemur  -14.87680531 10.42652416 13.75178432
rtibia  -3.503688097 1.171827435 24.98379517
rfoot  -3.210002661 -15.62860107 -44.41197968
rtoes  3.844322007 19.64191679 -101.3048203
lfemur  -12.89954758 -23.59859276 -19.40067291
ltibia  3.271445751 1.897518754 15.45993519
lfoot  1.23610568 -29.16914749 30.69223213
ltoes  -8.670782695 -18.09245492 -116.1538624
